<svg viewBox="0 0 900 540" xmlns="http://www.w3.org/2000/svg" font-family="'Inter', -apple-system, BlinkMacSystemFont, 'Segoe UI', sans-serif">
  <defs>
    <!-- Background gradient -->
    <radialGradient id="bgGrad" cx="60%" cy="30%" r="70%">
      <stop offset="0%" stop-color="#1a0033"/>
      <stop offset="60%" stop-color="#080018"/>
      <stop offset="100%" stop-color="#020008"/>
    </radialGradient>

    <!-- Solar panel cell gradient -->
    <linearGradient id="solarGrad" x1="0%" y1="0%" x2="100%" y2="100%">
      <stop offset="0%" stop-color="#0a2a5e"/>
      <stop offset="50%" stop-color="#0d3a7a"/>
      <stop offset="100%" stop-color="#071e4a"/>
    </linearGradient>

    <!-- Radiator gradient -->
    <linearGradient id="radiatorGrad" x1="0%" y1="0%" x2="0%" y2="100%">
      <stop offset="0%" stop-color="#1a4a4a"/>
      <stop offset="50%" stop-color="#0d2e2e"/>
      <stop offset="100%" stop-color="#061e1e"/>
    </linearGradient>

    <!-- Body gradient -->
    <linearGradient id="bodyGrad" x1="0%" y1="0%" x2="100%" y2="100%">
      <stop offset="0%" stop-color="#2a1a3a"/>
      <stop offset="100%" stop-color="#150d25"/>
    </linearGradient>

    <!-- Compute module gradient -->
    <linearGradient id="computeGrad" x1="0%" y1="0%" x2="100%" y2="100%">
      <stop offset="0%" stop-color="#3a1a5a"/>
      <stop offset="100%" stop-color="#200d35"/>
    </linearGradient>

    <!-- Purple glow filter -->
    <filter id="purpleGlow" x="-20%" y="-20%" width="140%" height="140%">
      <feGaussianBlur stdDeviation="3" result="blur"/>
      <feComposite in="SourceGraphic" in2="blur" operator="over"/>
    </filter>

    <!-- Subtle glow for labels -->
    <filter id="labelGlow" x="-5%" y="-5%" width="110%" height="110%">
      <feGaussianBlur stdDeviation="1.5" result="blur"/>
      <feComposite in="SourceGraphic" in2="blur" operator="over"/>
    </filter>

    <!-- Laser beam glow -->
    <filter id="laserGlow" x="-50%" y="-50%" width="200%" height="200%">
      <feGaussianBlur stdDeviation="2.5" result="blur"/>
      <feMerge><feMergeNode in="blur"/><feMergeNode in="SourceGraphic"/></feMerge>
    </filter>

    <!-- ISL dot glow -->
    <filter id="dotGlow" x="-100%" y="-100%" width="300%" height="300%">
      <feGaussianBlur stdDeviation="3" result="blur"/>
      <feMerge><feMergeNode in="blur"/><feMergeNode in="SourceGraphic"/></feMerge>
    </filter>

    <!-- Star pattern -->
    <pattern id="stars" x="0" y="0" width="120" height="120" patternUnits="userSpaceOnUse">
      <circle cx="10" cy="15" r="0.6" fill="white" opacity="0.5"/>
      <circle cx="35" cy="8" r="0.4" fill="white" opacity="0.3"/>
      <circle cx="60" cy="22" r="0.8" fill="white" opacity="0.6"/>
      <circle cx="85" cy="5" r="0.5" fill="white" opacity="0.4"/>
      <circle cx="110" cy="18" r="0.4" fill="white" opacity="0.3"/>
      <circle cx="20" cy="45" r="0.5" fill="white" opacity="0.35"/>
      <circle cx="50" cy="55" r="0.9" fill="white" opacity="0.5"/>
      <circle cx="78" cy="40" r="0.4" fill="white" opacity="0.3"/>
      <circle cx="100" cy="60" r="0.6" fill="white" opacity="0.4"/>
      <circle cx="5"  cy="75" r="0.5" fill="white" opacity="0.3"/>
      <circle cx="40" cy="85" r="0.4" fill="white" opacity="0.45"/>
      <circle cx="70" cy="78" r="0.7" fill="white" opacity="0.5"/>
      <circle cx="95" cy="90" r="0.5" fill="white" opacity="0.35"/>
      <circle cx="115" cy="70" r="0.4" fill="white" opacity="0.3"/>
      <circle cx="25" cy="105" r="0.6" fill="white" opacity="0.4"/>
      <circle cx="58" cy="112" r="0.4" fill="white" opacity="0.3"/>
      <circle cx="88" cy="100" r="0.8" fill="white" opacity="0.5"/>
    </pattern>

    <!-- Solar cell grid pattern -->
    <pattern id="solarCells" x="0" y="0" width="16" height="16" patternUnits="userSpaceOnUse">
      <rect width="16" height="16" fill="none"/>
      <line x1="8" y1="0" x2="8" y2="16" stroke="#1a4a9a" stroke-width="0.8" opacity="0.7"/>
      <line x1="0" y1="8" x2="16" y2="8" stroke="#1a4a9a" stroke-width="0.8" opacity="0.7"/>
    </pattern>

    <!-- Radiator fins pattern -->
    <pattern id="radiatorFins" x="0" y="0" width="10" height="10" patternUnits="userSpaceOnUse">
      <rect width="10" height="10" fill="none"/>
      <line x1="0" y1="5" x2="10" y2="5" stroke="#1a5a5a" stroke-width="0.6" opacity="0.6"/>
    </pattern>
  </defs>

  <!-- Background -->
  <rect width="900" height="540" fill="url(#bgGrad)"/>
  <rect width="900" height="540" fill="url(#stars)" opacity="0.8"/>

  <!-- Subtle purple nebula -->
  <ellipse cx="450" cy="270" rx="320" ry="180" fill="none" stroke="rgba(176,98,235,0.04)" stroke-width="80"/>
  <ellipse cx="450" cy="270" rx="200" ry="110" fill="rgba(176,98,235,0.025)"/>

  <!-- ============================================================
       SATELLITE BODY — central spine at x=450, y=270
       ============================================================ -->

  <!-- Main bus / structural frame -->
  <rect x="370" y="215" width="160" height="110" rx="6" fill="url(#bodyGrad)" stroke="rgba(176,98,235,0.5)" stroke-width="1.5"/>
  <!-- Frame reinforcement lines -->
  <line x1="370" y1="235" x2="530" y2="235" stroke="rgba(176,98,235,0.2)" stroke-width="0.8"/>
  <line x1="370" y1="305" x2="530" y2="305" stroke="rgba(176,98,235,0.2)" stroke-width="0.8"/>
  <line x1="410" y1="215" x2="410" y2="325" stroke="rgba(176,98,235,0.15)" stroke-width="0.8"/>
  <line x1="490" y1="215" x2="490" y2="325" stroke="rgba(176,98,235,0.15)" stroke-width="0.8"/>

  <!-- Structural corner brackets -->
  <rect x="370" y="215" width="8" height="8" rx="1" fill="rgba(176,98,235,0.4)"/>
  <rect x="522" y="215" width="8" height="8" rx="1" fill="rgba(176,98,235,0.4)"/>
  <rect x="370" y="317" width="8" height="8" rx="1" fill="rgba(176,98,235,0.4)"/>
  <rect x="522" y="317" width="8" height="8" rx="1" fill="rgba(176,98,235,0.4)"/>

  <!-- ============================================================
       COMPUTE MODULE — inside body, centre
       ============================================================ -->
  <rect x="392" y="230" width="116" height="80" rx="4" fill="url(#computeGrad)" stroke="rgba(176,98,235,0.7)" stroke-width="1.2"/>

  <!-- GPU/TPU chip rows -->
  <!-- Row 1 -->
  <rect x="400" y="238" width="22" height="14" rx="2" fill="#3d0f6b" stroke="rgba(176,98,235,0.8)" stroke-width="0.8"/>
  <rect x="426" y="238" width="22" height="14" rx="2" fill="#3d0f6b" stroke="rgba(176,98,235,0.8)" stroke-width="0.8"/>
  <rect x="452" y="238" width="22" height="14" rx="2" fill="#3d0f6b" stroke="rgba(176,98,235,0.8)" stroke-width="0.8"/>
  <rect x="478" y="238" width="22" height="14" rx="2" fill="#3d0f6b" stroke="rgba(176,98,235,0.8)" stroke-width="0.8"/>
  <!-- Row 2 -->
  <rect x="400" y="256" width="22" height="14" rx="2" fill="#3d0f6b" stroke="rgba(176,98,235,0.8)" stroke-width="0.8"/>
  <rect x="426" y="256" width="22" height="14" rx="2" fill="#3d0f6b" stroke="rgba(176,98,235,0.8)" stroke-width="0.8"/>
  <rect x="452" y="256" width="22" height="14" rx="2" fill="#3d0f6b" stroke="rgba(176,98,235,0.8)" stroke-width="0.8"/>
  <rect x="478" y="256" width="22" height="14" rx="2" fill="#3d0f6b" stroke="rgba(176,98,235,0.8)" stroke-width="0.8"/>
  <!-- Row 3 — ECC memory strips -->
  <rect x="400" y="274" width="100" height="6" rx="1" fill="#2a0a45" stroke="rgba(176,98,235,0.5)" stroke-width="0.6"/>
  <rect x="400" y="283" width="100" height="6" rx="1" fill="#2a0a45" stroke="rgba(176,98,235,0.5)" stroke-width="0.6"/>
  <!-- Power rail -->
  <rect x="400" y="294" width="100" height="4" rx="1" fill="rgba(176,98,235,0.3)" stroke="rgba(176,98,235,0.6)" stroke-width="0.5"/>

  <!-- Chip glow dots -->
  <circle cx="411" cy="245" r="1.5" fill="#b062eb" opacity="0.9" filter="url(#dotGlow)"/>
  <circle cx="437" cy="245" r="1.5" fill="#b062eb" opacity="0.9" filter="url(#dotGlow)"/>
  <circle cx="463" cy="245" r="1.5" fill="#b062eb" opacity="0.9" filter="url(#dotGlow)"/>
  <circle cx="489" cy="245" r="1.5" fill="#b062eb" opacity="0.9" filter="url(#dotGlow)"/>

  <!-- ============================================================
       SOLAR ARRAYS — extend left and right from body
       ============================================================ -->

  <!-- Left solar array (2 panels) -->
  <!-- Panel L1 (inner) -->
  <rect x="220" y="232" width="140" height="76" rx="3" fill="url(#solarGrad)" stroke="#1a5aaa" stroke-width="1.2"/>
  <rect x="220" y="232" width="140" height="76" rx="3" fill="url(#solarCells)" opacity="0.9"/>
  <!-- Panel L1 accent border -->
  <rect x="220" y="232" width="140" height="76" rx="3" fill="none" stroke="#2266cc" stroke-width="0.8" opacity="0.6"/>

  <!-- Panel L2 (outer) -->
  <rect x="64"  y="232" width="140" height="76" rx="3" fill="url(#solarGrad)" stroke="#1a5aaa" stroke-width="1.2"/>
  <rect x="64"  y="232" width="140" height="76" rx="3" fill="url(#solarCells)" opacity="0.9"/>
  <rect x="64"  y="232" width="140" height="76" rx="3" fill="none" stroke="#2266cc" stroke-width="0.8" opacity="0.6"/>

  <!-- Left boom connecting arrays to body -->
  <rect x="208" y="263" width="164" height="14" rx="2" fill="#1a0f2e" stroke="rgba(176,98,235,0.4)" stroke-width="1"/>

  <!-- Right solar array -->
  <!-- Panel R1 (inner) -->
  <rect x="540" y="232" width="140" height="76" rx="3" fill="url(#solarGrad)" stroke="#1a5aaa" stroke-width="1.2"/>
  <rect x="540" y="232" width="140" height="76" rx="3" fill="url(#solarCells)" opacity="0.9"/>
  <rect x="540" y="232" width="140" height="76" rx="3" fill="none" stroke="#2266cc" stroke-width="0.8" opacity="0.6"/>

  <!-- Panel R2 (outer) -->
  <rect x="696" y="232" width="140" height="76" rx="3" fill="url(#solarGrad)" stroke="#1a5aaa" stroke-width="1.2"/>
  <rect x="696" y="232" width="140" height="76" rx="3" fill="url(#solarCells)" opacity="0.9"/>
  <rect x="696" y="232" width="140" height="76" rx="3" fill="none" stroke="#2266cc" stroke-width="0.8" opacity="0.6"/>

  <!-- Right boom -->
  <rect x="528" y="263" width="164" height="14" rx="2" fill="#1a0f2e" stroke="rgba(176,98,235,0.4)" stroke-width="1"/>

  <!-- Solar panel edge highlights -->
  <line x1="220" y1="232" x2="360" y2="232" stroke="#4488ee" stroke-width="0.8" opacity="0.5"/>
  <line x1="64"  y1="232" x2="204" y2="232" stroke="#4488ee" stroke-width="0.8" opacity="0.5"/>
  <line x1="540" y1="232" x2="680" y2="232" stroke="#4488ee" stroke-width="0.8" opacity="0.5"/>
  <line x1="696" y1="232" x2="836" y2="232" stroke="#4488ee" stroke-width="0.8" opacity="0.5"/>

  <!-- ============================================================
       RADIATOR PANELS — top and bottom of body
       ============================================================ -->

  <!-- Top radiator -->
  <rect x="390" y="145" width="120" height="64" rx="3" fill="url(#radiatorGrad)" stroke="#1a7a7a" stroke-width="1.2"/>
  <rect x="390" y="145" width="120" height="64" rx="3" fill="url(#radiatorFins)" opacity="0.8"/>
  <!-- Radiator surface texture -->
  <rect x="390" y="145" width="120" height="64" rx="3" fill="none" stroke="#22aaaa" stroke-width="0.7" opacity="0.5"/>
  <!-- Coolant inlet/outlet -->
  <rect x="418" y="208" width="64" height="9" rx="2" fill="#1a0f2e" stroke="rgba(0,200,200,0.5)" stroke-width="0.8"/>
  <circle cx="432" cy="212" r="3" fill="none" stroke="rgba(0,200,200,0.7)" stroke-width="1"/>
  <circle cx="468" cy="212" r="3" fill="none" stroke="rgba(0,200,200,0.7)" stroke-width="1"/>
  <!-- Radiator surface sheen -->
  <rect x="396" y="151" width="108" height="4" rx="1" fill="rgba(34,170,170,0.15)"/>

  <!-- Bottom radiator -->
  <rect x="390" y="331" width="120" height="64" rx="3" fill="url(#radiatorGrad)" stroke="#1a7a7a" stroke-width="1.2"/>
  <rect x="390" y="331" width="120" height="64" rx="3" fill="url(#radiatorFins)" opacity="0.8"/>
  <rect x="390" y="331" width="120" height="64" rx="3" fill="none" stroke="#22aaaa" stroke-width="0.7" opacity="0.5"/>
  <rect x="418" y="323" width="64" height="9" rx="2" fill="#1a0f2e" stroke="rgba(0,200,200,0.5)" stroke-width="0.8"/>
  <circle cx="432" cy="327" r="3" fill="none" stroke="rgba(0,200,200,0.7)" stroke-width="1"/>
  <circle cx="468" cy="327" r="3" fill="none" stroke="rgba(0,200,200,0.7)" stroke-width="1"/>
  <rect x="396" y="337" width="108" height="4" rx="1" fill="rgba(34,170,170,0.15)"/>

  <!-- ============================================================
       ISL LASER TRANSCEIVERS — small pods on body corners
       ============================================================ -->

  <!-- Top-left laser pod -->
  <rect x="358" y="213" width="16" height="16" rx="3" fill="#1a0f35" stroke="rgba(0,220,255,0.7)" stroke-width="1.2"/>
  <circle cx="366" cy="221" r="4" fill="none" stroke="rgba(0,220,255,0.9)" stroke-width="1"/>
  <circle cx="366" cy="221" r="1.5" fill="rgba(0,220,255,1)" filter="url(#dotGlow)"/>

  <!-- Top-right laser pod -->
  <rect x="526" y="213" width="16" height="16" rx="3" fill="#1a0f35" stroke="rgba(0,220,255,0.7)" stroke-width="1.2"/>
  <circle cx="534" cy="221" r="4" fill="none" stroke="rgba(0,220,255,0.9)" stroke-width="1"/>
  <circle cx="534" cy="221" r="1.5" fill="rgba(0,220,255,1)" filter="url(#dotGlow)"/>

  <!-- Bottom-left laser pod -->
  <rect x="358" y="311" width="16" height="16" rx="3" fill="#1a0f35" stroke="rgba(0,220,255,0.7)" stroke-width="1.2"/>
  <circle cx="366" cy="319" r="4" fill="none" stroke="rgba(0,220,255,0.9)" stroke-width="1"/>
  <circle cx="366" cy="319" r="1.5" fill="rgba(0,220,255,1)" filter="url(#dotGlow)"/>

  <!-- Bottom-right laser pod -->
  <rect x="526" y="311" width="16" height="16" rx="3" fill="#1a0f35" stroke="rgba(0,220,255,0.7)" stroke-width="1.2"/>
  <circle cx="534" cy="319" r="4" fill="none" stroke="rgba(0,220,255,0.9)" stroke-width="1"/>
  <circle cx="534" cy="319" r="1.5" fill="rgba(0,220,255,1)" filter="url(#dotGlow)"/>

  <!-- ISL laser beams (dashed, outward) -->
  <line x1="360" y1="219" x2="310" y2="185" stroke="rgba(0,220,255,0.5)" stroke-width="1" stroke-dasharray="4,3" filter="url(#laserGlow)"/>
  <line x1="542" y1="219" x2="592" y2="185" stroke="rgba(0,220,255,0.5)" stroke-width="1" stroke-dasharray="4,3" filter="url(#laserGlow)"/>
  <line x1="360" y1="323" x2="310" y2="357" stroke="rgba(0,220,255,0.5)" stroke-width="1" stroke-dasharray="4,3" filter="url(#laserGlow)"/>
  <line x1="542" y1="323" x2="592" y2="357" stroke="rgba(0,220,255,0.5)" stroke-width="1" stroke-dasharray="4,3" filter="url(#laserGlow)"/>

  <!-- ============================================================
       POWER CONDITIONING UNIT (PCU) — small box on body
       ============================================================ -->
  <rect x="373" y="317" width="32" height="18" rx="2" fill="#1a1030" stroke="rgba(176,98,235,0.45)" stroke-width="0.9"/>
  <line x1="377" y1="321" x2="401" y2="321" stroke="rgba(176,98,235,0.4)" stroke-width="0.6"/>
  <line x1="377" y1="325" x2="401" y2="325" stroke="rgba(176,98,235,0.4)" stroke-width="0.6"/>
  <line x1="377" y1="329" x2="401" y2="329" stroke="rgba(176,98,235,0.4)" stroke-width="0.6"/>

  <!-- ============================================================
       ATTITUDE THRUSTERS — small nozzle caps
       ============================================================ -->
  <!-- Four corners of main bus -->
  <polygon points="370,215 360,208 360,215" fill="#2a1a3a" stroke="rgba(176,98,235,0.4)" stroke-width="0.8"/>
  <polygon points="530,215 540,208 540,215" fill="#2a1a3a" stroke="rgba(176,98,235,0.4)" stroke-width="0.8"/>
  <polygon points="370,325 360,332 360,325" fill="#2a1a3a" stroke="rgba(176,98,235,0.4)" stroke-width="0.8"/>
  <polygon points="530,325 540,332 540,325" fill="#2a1a3a" stroke="rgba(176,98,235,0.4)" stroke-width="0.8"/>

  <!-- ============================================================
       ANNOTATION LINES AND LABELS
       SpaceX Starlink style: thin lines with small dots at target,
       label block with value line and description
       ============================================================ -->

  <!-- ===== 1. SOLAR ARRAYS (top, spanning both panels) ===== -->
  <line x1="134" y1="232" x2="134" y2="130" stroke="rgba(255,255,255,0.35)" stroke-width="0.9"/>
  <line x1="134" y1="130" x2="270" y2="130" stroke="rgba(255,255,255,0.35)" stroke-width="0.9"/>
  <circle cx="134" cy="232" r="2.5" fill="#b062eb"/>
  <!-- Label -->
  <text x="274" y="122" fill="#ffffff" font-size="12.5" font-weight="700" letter-spacing="0.06em">DEPLOYABLE SOLAR ARRAYS</text>
  <text x="274" y="138" fill="#4488ee" font-size="10.5" font-weight="400">~$500K–$2M per wing · 1,366 W/m² in SSO</text>
  <text x="274" y="152" fill="rgba(255,255,255,0.45)" font-size="9.5">Multi-junction GaAs cells · ~30% efficiency</text>

  <!-- ===== 2. RADIATOR PANELS (left of top radiator) ===== -->
  <line x1="390" y1="177" x2="300" y2="177" stroke="rgba(255,255,255,0.35)" stroke-width="0.9"/>
  <line x1="300" y1="177" x2="300" y2="420" stroke="rgba(255,255,255,0.35)" stroke-width="0.9"/>
  <line x1="300" y1="420" x2="200" y2="420" stroke="rgba(255,255,255,0.35)" stroke-width="0.9"/>
  <circle cx="390" cy="177" r="2.5" fill="#22aaaa"/>
  <circle cx="450" cy="363" r="2.5" fill="#22aaaa"/>
  <line x1="450" y1="363" x2="300" y2="363" stroke="rgba(255,255,255,0.35)" stroke-width="0.9" stroke-dasharray="2,2"/>
  <!-- Label -->
  <text x="25" y="413" fill="#ffffff" font-size="12.5" font-weight="700" letter-spacing="0.06em">THERMAL RADIATORS</text>
  <text x="25" y="429" fill="#22cccc" font-size="10.5" font-weight="400">~100–350 W/m² rejection · PUE ~1.05</text>
  <text x="25" y="443" fill="rgba(255,255,255,0.45)" font-size="9.5">Passive radiation to ~3K deep space · ammonia loops</text>

  <!-- ===== 3. COMPUTE MODULE (right side) ===== -->
  <line x1="508" y1="270" x2="620" y2="270" stroke="rgba(255,255,255,0.35)" stroke-width="0.9"/>
  <circle cx="508" cy="270" r="2.5" fill="#b062eb"/>
  <!-- Label -->
  <text x="624" y="256" fill="#ffffff" font-size="12.5" font-weight="700" letter-spacing="0.06em">COMPUTE MODULE</text>
  <text x="624" y="272" fill="#b062eb" font-size="10.5" font-weight="400">GPU/TPU racks · ECC + TMR redundancy</text>
  <text x="624" y="286" fill="rgba(255,255,255,0.45)" font-size="9.5">Radiation-tolerant COTS · 3x compute overhead for TMR</text>

  <!-- ===== 4. ISL LASERS (bottom right) ===== -->
  <line x1="542" y1="319" x2="640" y2="350" stroke="rgba(255,255,255,0.35)" stroke-width="0.9"/>
  <circle cx="542" cy="319" r="2.5" fill="#00ccff"/>
  <!-- Label -->
  <text x="644" y="344" fill="#ffffff" font-size="12.5" font-weight="700" letter-spacing="0.06em">OPTICAL ISL TRANSCEIVERS</text>
  <text x="644" y="360" fill="#00ccff" font-size="10.5" font-weight="400">Free-space laser links · up to 1.6 Tbps</text>
  <text x="644" y="374" fill="rgba(255,255,255,0.45)" font-size="9.5">100s of meters inter-satellite · formation flying</text>

  <!-- ===== 5. STRUCTURAL FRAME + SHIELDING (bottom left) ===== -->
  <line x1="370" y1="325" x2="270" y2="370" stroke="rgba(255,255,255,0.35)" stroke-width="0.9"/>
  <circle cx="370" cy="325" r="2.5" fill="rgba(176,98,235,0.8)"/>
  <!-- Label -->
  <text x="25" y="365" fill="#ffffff" font-size="12.5" font-weight="700" letter-spacing="0.06em">STRUCTURAL BUS</text>
  <text x="25" y="381" fill="rgba(200,160,240,0.9)" font-size="10.5" font-weight="400">Al-Li alloy frame · micrometeoroid shielding</text>
  <text x="25" y="395" fill="rgba(255,255,255,0.45)" font-size="9.5">Launch mass multiplier · drives cost-per-kg economics</text>

  <!-- ===== 6. POWER CONDITIONING (small label, inside) ===== -->
  <line x1="389" y1="326" x2="345" y2="290" stroke="rgba(255,255,255,0.25)" stroke-width="0.8"/>
  <circle cx="389" cy="326" r="1.8" fill="rgba(176,98,235,0.6)"/>
  <text x="240" y="285" fill="rgba(255,255,255,0.65)" font-size="10" font-weight="600">POWER COND. UNIT</text>
  <text x="240" y="298" fill="rgba(255,255,255,0.35)" font-size="9">DC-DC conversion · bus voltage reg.</text>

  <!-- ===== 7. THRUSTERS (top, small) ===== -->
  <line x1="360" y1="211" x2="338" y2="190" stroke="rgba(255,255,255,0.2)" stroke-width="0.8"/>
  <circle cx="360" cy="211" r="1.8" fill="rgba(176,98,235,0.5)"/>
  <text x="242" y="188" fill="rgba(255,255,255,0.55)" font-size="10" font-weight="600">ATTITUDE THRUSTERS</text>
  <text x="242" y="200" fill="rgba(255,255,255,0.3)" font-size="9">Station-keeping · formation flying</text>

  <!-- ============================================================
       TITLE / SUBTITLE
       ============================================================ -->
  <text x="450" y="36" fill="#ffffff" font-size="16" font-weight="700" text-anchor="middle" letter-spacing="0.12em">SPACE DATA CENTER SATELLITE</text>
  <text x="450" y="54" fill="rgba(176,98,235,0.85)" font-size="11" font-weight="400" text-anchor="middle" letter-spacing="0.06em">MAJOR SYSTEM COMPONENTS &amp; COST DRIVERS</text>
  <!-- Thin rule under title -->
  <line x1="300" y1="61" x2="600" y2="61" stroke="rgba(176,98,235,0.3)" stroke-width="0.8"/>

  <!-- ============================================================
       COST CALLOUT BADGES (small chips, top right)
       ============================================================ -->
  <g transform="translate(624, 76)">
    <!-- Background card -->
    <rect x="0" y="0" width="240" height="120" rx="6" fill="rgba(0,0,0,0.55)" stroke="rgba(176,98,235,0.25)" stroke-width="1"/>
    <text x="12" y="18" fill="rgba(255,255,255,0.5)" font-size="9" font-weight="600" letter-spacing="0.1em">ESTIMATED COST SHARE PER SATELLITE</text>
    <line x1="12" y1="24" x2="228" y2="24" stroke="rgba(176,98,235,0.2)" stroke-width="0.7"/>

    <!-- Compute -->
    <rect x="12" y="32" width="8" height="8" rx="1" fill="#b062eb"/>
    <text x="26" y="41" fill="rgba(255,255,255,0.85)" font-size="10.5" font-weight="600">Compute Hardware</text>
    <text x="26" y="53" fill="rgba(255,255,255,0.4)" font-size="9">~30–40% of hardware cost</text>

    <!-- Solar -->
    <rect x="12" y="60" width="8" height="8" rx="1" fill="#2266cc"/>
    <text x="26" y="69" fill="rgba(255,255,255,0.85)" font-size="10.5" font-weight="600">Solar Arrays</text>
    <text x="26" y="81" fill="rgba(255,255,255,0.4)" font-size="9">~25–35% of hardware cost</text>

    <!-- Radiators -->
    <rect x="12" y="88" width="8" height="8" rx="1" fill="#22aaaa"/>
    <text x="26" y="97" fill="rgba(255,255,255,0.85)" font-size="10.5" font-weight="600">Radiators + Thermal</text>
    <text x="26" y="109" fill="rgba(255,255,255,0.4)" font-size="9">~15–25% of hardware cost</text>
  </g>

  <!-- ============================================================
       ORBIT INDICATOR (small, bottom right)
       ============================================================ -->
  <text x="875" y="520" fill="rgba(255,255,255,0.2)" font-size="9" text-anchor="end">LEO / SSO · ~500–600 km altitude</text>

</svg>
